<svg xmlns="http://www.w3.org/2000/svg" xmlns:xlink="http://www.w3.org/1999/xlink" style="enable-background:new 0 0 23.6 131.1" id="home" x="0" y="0" version="1.1" viewBox="0 0 23.6 131.1" xml:space="preserve"><style type="text/css"/><g><path d="M11.8,52.5C5.3,52.5,0,57.8,0,64.3v60.6c0,3.4,2.8,6.2,6.2,6.2h11.2c3.4,0,6.2-2.8,6.2-6.2V64.3 C23.6,57.8,18.3,52.5,11.8,52.5z M19.6,124.9c0,1.2-1,2.2-2.2,2.2H6.2c-1.2,0-2.2-1-2.2-2.2V64.3c0-4.3,3.5-7.8,7.8-7.8 s7.8,3.5,7.8,7.8V124.9z"/><path d="M17.4,0H6.2C2.8,0,0,2.8,0,6.2v48.2c1.1-1.3,2.5-2.4,4-3.3V6.2C4,5,5,4,6.2,4h11.2c1.2,0,2.2,1,2.2,2.2v44.9 c1.5,0.9,2.9,2,4,3.3V6.2C23.6,2.8,20.8,0,17.4,0z"/><path d="M11.6,60.1c-3,0-5.5,2.5-5.5,5.5s2.5,5.5,5.5,5.5s5.5-2.5,5.5-5.5S14.7,60.1,11.6,60.1z M11.6,69.1c-1.9,0-3.5-1.6-3.5-3.5 s1.6-3.5,3.5-3.5s3.5,1.6,3.5,3.5S13.5,69.1,11.6,69.1z"/><path d="M17.1,12.8c0-3-2.5-5.5-5.5-5.5s-5.5,2.5-5.5,5.5s2.5,5.5,5.5,5.5S17.1,15.8,17.1,12.8z M8.1,12.8c0-1.9,1.6-3.5,3.5-3.5 s3.5,1.6,3.5,3.5s-1.6,3.5-3.5,3.5S8.1,14.7,8.1,12.8z"/></g></svg>