<svg xmlns="http://www.w3.org/2000/svg" xmlns:xlink="http://www.w3.org/1999/xlink" style="enable-background:new 0 0 16 16" id="home" x="0" y="0" version="1.1" viewBox="0 0 16 16" xml:space="preserve"><style type="text/css"/><path d="M13.4,0H4.1c-0.5,0-1,0.2-1.3,0.6C2.5,0.9,2.3,1.4,2.3,1.9v2.5H1.4C1,4.4,0.7,4.8,0.8,5.1c0,0.4,0.3,0.6,0.7,0.7h0.9v1.5	H1.4C1,7.3,0.7,7.7,0.8,8c0,0.4,0.3,0.6,0.7,0.7h0.9v1.5H1.4c-0.4,0-0.7,0.3-0.7,0.7c0,0.4,0.3,0.6,0.7,0.7h0.9v2.5	c0,1,0.8,1.9,1.8,1.9h9.3c1,0,1.9-0.9,1.8-1.9V1.9C15.3,0.9,14.4,0,13.4,0z M5.9,14.6H4.1c-0.3,0-0.5-0.3-0.5-0.5v-2.5h0.8	c0.2,0,0.3-0.1,0.5-0.2s0.2-0.3,0.2-0.5c0-0.4-0.3-0.6-0.7-0.7H3.6V8.7h0.8c0.2,0,0.3-0.1,0.5-0.2S5.1,8.1,5.1,8	c0-0.4-0.3-0.6-0.7-0.7H3.6V5.8h0.8c0.4,0,0.7-0.3,0.7-0.7c0-0.4-0.3-0.6-0.7-0.7H3.6V1.9c0-0.1,0-0.3,0.1-0.4	C3.9,1.4,4,1.4,4.1,1.4h1.7V14.6z M13.9,14.1c0,0.3-0.2,0.5-0.5,0.5H7.2V1.4h6.2c0.3,0,0.5,0.2,0.5,0.5V14.1z"/></svg>