<svg xmlns="http://www.w3.org/2000/svg" xmlns:xlink="http://www.w3.org/1999/xlink" id="home" x="0" y="0" version="1.1" viewBox="0 0 34 34" xml:space="preserve" style="enable-background:new 0 0 34 34"><style type="text/css">.st1{fill:#fd3b4c}.st3{fill:#fff}</style><g><circle cx="17" cy="17" r="17" class="st1"/></g><g><g><path d="M19.6,25.4h-5.2c-1.2,0-2.3-0.6-2.9-1.7l-2.6-4.5c-0.6-1-0.6-2.3,0-3.4l2.6-4.5c0.6-1,1.7-1.7,2.9-1.7h5.2 c1.2,0,2.3,0.6,2.9,1.7l2.6,4.5c0.6,1,0.6,2.3,0,3.4l-2.6,4.5C21.9,24.7,20.8,25.4,19.6,25.4z M14.4,10.7c-0.8,0-1.6,0.4-2,1.1 l-2.6,4.5c-0.4,0.7-0.4,1.6,0,2.3l2.6,4.5c0.4,0.7,1.2,1.1,2,1.1h5.2c0.8,0,1.6-0.4,2-1.1l2.6-4.5c0.4-0.7,0.4-1.6,0-2.3v0 l-2.6-4.5c-0.4-0.7-1.2-1.1-2-1.1H14.4z" class="st3"/></g><g><path d="M17,20.9c-1.9,0-3.4-1.5-3.4-3.4c0-1.9,1.5-3.4,3.4-3.4c1.9,0,3.4,1.5,3.4,3.4C20.4,19.4,18.9,20.9,17,20.9z M17,15.2c-1.3,0-2.3,1-2.3,2.3s1,2.3,2.3,2.3s2.3-1,2.3-2.3S18.3,15.2,17,15.2z" class="st3"/></g></g></svg>