<svg xmlns="http://www.w3.org/2000/svg" xmlns:xlink="http://www.w3.org/1999/xlink" style="enable-background:new 0 0 24 24" id="home" x="0" y="0" version="1.1" viewBox="0 0 24 24" xml:space="preserve"><style type="text/css"/><g><path d="M12,0C5.4,0,0,5.4,0,12s5.4,12,12,12s12-5.4,12-12S18.6,0,12,0z M13.9,8.2l-0.2,0c-2,0.1-3.6,1.8-3.6,3.8 c0,2.1,1.7,3.8,3.8,3.8h7.5c-1.5,3.8-5.3,6.4-9.4,6.4c0,0,0,0,0,0C6.4,22.2,1.8,17.6,1.8,12S6.4,1.8,12,1.8c0,0,0,0,0,0 c4.2,0,7.9,2.5,9.5,6.4H13.9z M13.9,10H22c0.1,0.7,0.2,1.3,0.2,2s-0.1,1.3-0.2,2h-8l-0.1,0c-1-0.1-1.9-0.9-1.9-2 C11.9,10.9,12.8,10,13.9,10z"/><path d="M13.9,13.4c0.8,0,1.4-0.6,1.4-1.4s-0.6-1.4-1.4-1.4c-0.8,0-1.4,0.6-1.4,1.4S13.2,13.4,13.9,13.4z"/></g></svg>