<svg xmlns="http://www.w3.org/2000/svg" xmlns:xlink="http://www.w3.org/1999/xlink" id="home" x="0" y="0" version="1.1" viewBox="0 0 34 34" xml:space="preserve" style="enable-background:new 0 0 34 34"><style type="text/css">.st3{fill:#fff}.st4{fill-rule:evenodd;clip-rule:evenodd;fill:#5c7bfc}</style><circle cx="17" cy="17" r="17" class="st4"/><path d="M23,25H11c-0.3,0-0.6-0.2-0.7-0.6v-9.4c0.1-0.3,0.4-0.6,0.7-0.6h2.5c0.3,0,0.5,0.3,0.5,0.6	c0,0.3-0.2,0.5-0.5,0.5c0,0,0,0,0,0h-2.2v8.4h11.3v-8.4h-2.5c-0.3,0-0.5-0.2-0.5-0.5c0,0,0,0,0,0c0-0.3,0.2-0.6,0.5-0.6H23	c0.4,0,0.6,0.3,0.7,0.6v9.4C23.6,24.8,23.3,25,23,25z M17,19.4c-0.3,0-0.5-0.2-0.5-0.5V11l-1.4,1.7c-0.2,0.2-0.5,0.3-0.8,0.1	c-0.2-0.2-0.3-0.5-0.1-0.7c0,0,0,0,0,0c0,0,1.6-2,2.4-2.9c0.1,0,0.6-0.2,0.8,0.1l2.4,2.9c0.1,0.1,0.1,0.2,0.1,0.3	c0,0.2-0.1,0.3-0.2,0.4c-0.2,0.2-0.6,0.1-0.8-0.1L17.5,11v7.8C17.5,19.1,17.3,19.4,17,19.4z" class="st3"/></svg>