<svg xmlns="http://www.w3.org/2000/svg" xmlns:xlink="http://www.w3.org/1999/xlink" id="home" x="0" y="0" version="1.1" viewBox="0 0 8.8 16" xml:space="preserve" style="enable-background:new 0 0 8.8 16"><style type="text/css">.st21{fill-rule:evenodd;clip-rule:evenodd}</style><g id="Group_1_" transform="translate(4)"><path id="Combined-Shape-7_1_" d="M4.5,9c0.1,0,0.2,0.1,0.2,0.2c0,0.1,0,0.2,0,0.4l0,0l-4.1,6.3C0.6,16,0.4,16,0.3,16 c0,0-0.1-0.1-0.1-0.1l0,0l-4.1-6.3C-4,9.4-4,9.3-4,9.2C-3.9,9.1-3.8,9-3.7,9H4.5L4.5,9z M0.4,0c0.1,0,0.2,0.1,0.2,0.1l0,0l4.1,6.3 c0.1,0.1,0.1,0.2,0,0.4C4.8,6.9,4.7,7,4.5,7h-8.3C-3.8,7-3.9,6.9-4,6.8c0-0.1,0-0.2,0-0.4l0,0l4.1-6.3C0.2,0.1,0.3,0,0.4,0z" class="st21"/></g></svg>