<svg xmlns="http://www.w3.org/2000/svg" xmlns:xlink="http://www.w3.org/1999/xlink" id="home" x="0" y="0" version="1.1" viewBox="0 0 16 16" xml:space="preserve" style="enable-background:new 0 0 16 16"><style type="text/css">.st1{fill:#fd3b4c}.st3{fill:#fff}</style><g><path id="Subtraction_25" d="M14,16H2c-1.1,0-2-0.9-2-2V2c0-1.1,0.9-2,2-2h12c1.1,0,2,0.9,2,2v12 C16,15.1,15.1,16,14,16z" class="st1"/><path d="M3.5,7.7C3.2,7.7,3,7.9,3,8.2c0,0.1,0.1,0.3,0.1,0.4l2.7,2.7c0.2,0.2,0.5,0.2,0.7,0l6.3-6.3 c0.2-0.2,0.2-0.5,0-0.7c-0.2-0.2-0.5-0.2-0.7,0l-6,6L3.9,7.8C3.8,7.7,3.6,7.7,3.5,7.7z" class="st3"/></g></svg>