<svg xmlns="http://www.w3.org/2000/svg" xmlns:xlink="http://www.w3.org/1999/xlink" style="enable-background:new 0 0 24 24" id="home" x="0" y="0" version="1.1" viewBox="0 0 24 24" xml:space="preserve"><style type="text/css"/><g><path d="M20.3,5H3.7C2.7,5,1.8,5.8,1.8,6.9v10.2c0,1.1,0.9,1.9,1.9,1.9h16.5c1.1,0,1.9-0.9,1.9-1.9V6.9C22.2,5.8,21.3,5,20.3,5z M19.6,6.5l-7,5.8c-0.3,0.3-0.8,0.3-1.2,0l-7-5.8H19.6z M3.3,7.5L8.7,12l-5.4,3.6V7.5z M20.3,17.5H3.7c-0.2,0-0.3-0.1-0.4-0.2 L9.9,13l0.6,0.5c0.9,0.8,2.2,0.8,3.1,0l0.6-0.5l6.5,4.3C20.6,17.4,20.4,17.5,20.3,17.5z M20.7,15.5L15.3,12l5.4-4.5V15.5z"/></g></svg>