<svg xmlns="http://www.w3.org/2000/svg" xmlns:xlink="http://www.w3.org/1999/xlink" style="enable-background:new 0 0 16 16" id="home" x="0" y="0" version="1.1" viewBox="0 0 16 16" xml:space="preserve"><style type="text/css"/><path id="Combined_Shape_1_" d="M0,8c0-4.4,3.6-8,8-8s8,3.6,8,8s-3.6,8-8,8C3.6,16,0,12.4,0,8z M1,8c0,3.9,3.1,7,7,7s7-3.1,7-7	s-3.1-7-7-7C4.1,1,1,4.1,1,8z M11,11.5L8.2,8.7l-2.8,2.8c-0.2,0.2-0.5,0.2-0.7,0c-0.2-0.2-0.2-0.5,0-0.7c0,0,0,0,0,0L7.5,8L4.6,5.1	c-0.2-0.2-0.2-0.5,0-0.7c0.2-0.2,0.5-0.2,0.7,0c0,0,0,0,0,0l2.8,2.8L11,4.4c0.2-0.2,0.5-0.2,0.7,0c0.2,0.2,0.2,0.5,0,0.7L8.9,8	l2.8,2.8c0.2,0.2,0.2,0.5,0,0.7C11.5,11.7,11.2,11.7,11,11.5C11,11.5,11,11.5,11,11.5L11,11.5z"/></svg>