<svg xmlns="http://www.w3.org/2000/svg" xmlns:xlink="http://www.w3.org/1999/xlink" id="home" x="0" y="0" version="1.1" viewBox="0 0 34 34" xml:space="preserve" style="enable-background:new 0 0 34 34"><style type="text/css">.st3{fill:#fff}.st6{fill-rule:evenodd;clip-rule:evenodd;fill:#3eaf66}</style><circle cx="17" cy="17" r="17" class="st6"/><g><path d="M24.7,19.4L24.7,19.4l-0.1-0.2c-0.5-0.6-1.4-0.7-2-0.3l-3,1.7l0,0l-0.1-0.1c-0.1-0.1-0.3-0.2-0.5-0.3l-4.8-1.7 l-0.1,0c-0.1,0-0.1,0-0.2,0l0,0l-2.4,0.3l-0.1,0c-0.3,0.1-0.5,0.3-0.5,0.6v4v0.1c0,0.3,0.3,0.5,0.6,0.5h1.4l5.2,1c0,0,0.1,0,0.1,0 c0.1,0,0.2,0,0.3-0.1l5.6-3.2l0.1-0.1c0.3-0.2,0.6-0.6,0.7-1C25.1,20.2,25,19.7,24.7,19.4z M23.8,20.3L23.8,20.3 c-0.1,0.2-0.1,0.2-0.2,0.3l-5.4,3.1l-5.1-1c0,0-0.1,0-0.1,0h-0.8v-2.9l1.7-0.2l4.7,1.7l0,0c0,0,0,0,0,0c0,0,0,0,0,0.1 c0,0-0.1,0.1-0.1,0L16,20.6l-0.1,0c-0.3-0.1-0.6,0.1-0.7,0.4c-0.1,0.3,0.1,0.6,0.4,0.7c0,0,0,0,0,0l2.6,0.9l0.1,0 c0.3,0.1,0.5,0,0.8-0.1l0.1,0c0.2-0.1,0.4-0.3,0.5-0.6l0-0.1l0.1,0c0,0,0.1,0,0.1-0.1l3.2-1.9l0.1,0c0.2-0.1,0.4,0,0.5,0.2 C23.8,20.1,23.8,20.2,23.8,20.3z" class="st3"/><path d="M12.8,12.5c-0.2,0.2-0.4,0.6-0.4,0.9c0,0.4,0.2,0.8,0.5,1l-0.1,0.1c-0.2,0.2-0.4,0.6-0.4,0.9 c0,1.3,2.1,2.2,4.8,2.2c2.7,0,4.8-0.9,4.8-2.2l0-0.1c0-0.3-0.2-0.6-0.4-0.8l-0.1-0.1l0,0h0l0,0c0.3-0.3,0.5-0.6,0.5-1l0-0.1 c0-0.3-0.2-0.6-0.4-0.8l-0.1-0.1l0,0c0.3-0.3,0.5-0.6,0.5-1.1c0-1.3-2.1-2.2-4.9-2.2c-2.7,0-4.9,0.9-4.9,2.2c0,0.4,0.2,0.8,0.5,1.1 L12.8,12.5z M17.3,16.7c-2.1,0-3.8-0.7-3.8-1.2c0-0.1,0.1-0.2,0.1-0.3l0,0l0,0v0l0,0l0-0.1c0,0,0,0,0-0.1l0,0l0.2,0.1 c1,0.4,2.1,0.6,3.2,0.6h0.2h0.2c1.1,0,2.3-0.2,3.3-0.6l0.2,0.2l0,0.1c0.1,0.1,0.1,0.1,0.1,0.2C21.1,16,19.4,16.7,17.3,16.7z M17.1,10.2h0.2h0.2c2,0,3.6,0.7,3.6,1.2c0,0.5-1.7,1.2-3.8,1.2c-2.1,0-3.8-0.7-3.8-1.2C13.5,10.8,15.1,10.2,17.1,10.2z M13.5,13.4 c0-0.1,0-0.1,0.1-0.2l0,0l0,0l0,0v0l0,0l0-0.1c0,0,0,0,0-0.1l0-0.1c1.1,0.5,2.3,0.7,3.5,0.6c1.2,0,2.4-0.2,3.5-0.6l0.2,0.2l0,0.1 c0.1,0.1,0.1,0.1,0.1,0.2c0,0.5-1.7,1.2-3.8,1.2C15.2,14.6,13.5,14,13.5,13.4L13.5,13.4z" class="st3"/><path d="M9.6,18.3c-0.3,0-0.6,0.3-0.6,0.6v5v0.1c0,0.3,0.3,0.5,0.6,0.5c0.3,0,0.6-0.3,0.6-0.6c0,0,0,0,0,0v-5v-0.1 C10.2,18.5,9.9,18.3,9.6,18.3z" class="st3"/><polygon points="14 18.4 14 18.4 14 18.4" class="st3"/><polygon points="9.6 18.3 9.6 18.3 9.6 18.3" class="st3"/></g></svg>