<svg xmlns="http://www.w3.org/2000/svg" xmlns:xlink="http://www.w3.org/1999/xlink" style="enable-background:new 0 0 26 26" id="home" x="0" y="0" version="1.1" viewBox="0 0 26 26" xml:space="preserve"><style type="text/css"/><g><path d="M10.2,5h-1C8.5,5,8,5.6,8,6.2v2.5H7.4c-1,0-1.8,0.8-1.8,1.8v9.2c0,0.7,0.5,1.2,1.2,1.2h12.4c0.7,0,1.2-0.6,1.2-1.2V13 c0-0.7-0.5-1.2-1.2-1.2H18V6.2C18,5.6,17.5,5,16.8,5v0H10.2 M11.9,6.1h5v5.7H9.1V6.1H11.9 M6.7,10.4L6.7,10.4C6.8,10,7,9.8,7.4,9.8 H8v0v2H6.7V10.4z M19.3,16.9h-2.5l-0.1,0c-0.3-0.1-0.5-0.4-0.5-0.8c0-0.5,0.3-0.8,0.6-0.8h2.5l0,0V16.9z M19.3,14.1h-2.4h-0.1 c-0.9,0.1-1.7,0.9-1.7,1.9c0,1.1,0.8,1.9,1.8,1.9h2.4v1.9h-12l-0.1,0c-0.3,0-0.5-0.3-0.5-0.6v-6.4h12.6V14.1z"/><path d="M13.7,9.2l-0.3,0.3V7.4c0-0.3-0.2-0.5-0.4-0.5s-0.4,0.2-0.4,0.5v2.1l-0.3-0.3C12.1,9,11.9,9,11.7,9.1 c-0.1,0.1-0.2,0.2-0.2,0.4c0,0.1,0,0.2,0.1,0.3l1,1.3c0.1,0.1,0.2,0.1,0.3,0.1c0.1,0,0.3-0.1,0.3-0.1c0.3-0.4,1.1-1.4,1.1-1.4 c0.1-0.1,0.1-0.2,0.1-0.3c0-0.1-0.1-0.2-0.2-0.3C14.1,9,13.9,9,13.7,9.2z"/></g></svg>