<svg xmlns="http://www.w3.org/2000/svg" xmlns:xlink="http://www.w3.org/1999/xlink" style="enable-background:new 0 0 16 16" id="home" x="0" y="0" version="1.1" viewBox="0 0 16 16" xml:space="preserve"><style type="text/css"/><path d="M15,12.2c-0.1-0.1-0.3-0.2-0.5-0.2H14V6.2c0-3.1-2.3-5.7-5.4-6c-0.4,0-0.8,0-1.2,0C4.3,0.5,2,3.1,2,6.2v5.8H1.5	c0,0-0.1,0-0.1,0c-0.2,0-0.4,0.1-0.5,0.2c-0.1,0.1-0.2,0.3-0.2,0.5c0,0.2,0.1,0.4,0.2,0.5c0.1,0.1,0.3,0.2,0.4,0.2c0,0,0,0,0,0h4.1	c0,0.6,0.3,1.2,0.8,1.7c0.5,0.5,1.1,0.7,1.7,0.7c0.6,0,1.3-0.2,1.7-0.7c0.5-0.4,0.7-1,0.8-1.7h4.1c0,0,0.1,0,0.1,0	c0.4,0,0.7-0.4,0.7-0.7C15.3,12.5,15.2,12.4,15,12.2z M9.1,13.4c0,0.6-0.5,1-1.1,1c-0.6,0-1-0.4-1.1-1H9.1z M12.7,6.2v5.8H3.3V6.2	c0-2.5,2.1-4.6,4.6-4.6c0,0,0,0,0.1,0c1.2,0,2.4,0.5,3.2,1.3C12.1,3.8,12.6,5,12.7,6.2z"/></svg>