<svg xmlns="http://www.w3.org/2000/svg" xmlns:xlink="http://www.w3.org/1999/xlink" id="home" x="0" y="0" version="1.1" viewBox="0 0 16 16" xml:space="preserve" style="enable-background:new 0 0 16 16"><style type="text/css">.st0{fill:none}</style><rect id="Rectangle_509" width="16" height="16" x="0" class="st0"/><path id="Union_4" d="M6,13.3L1.4,8.6c0,0-0.1-0.1-0.1-0.1C1,8.3,1,7.8,1.3,7.6l4.6-4.8c0.2-0.3,0.6-0.3,0.9,0c0,0,0,0,0,0	c0.3,0.3,0.3,0.7,0,1L3.3,7.4h10.9c0.4,0,0.7,0.3,0.7,0.7c0,0.4-0.3,0.7-0.7,0.7c0,0,0,0-0.1,0H3.4L7,12.3c0.3,0.3,0.3,0.7,0,0.9	C6.7,13.5,6.3,13.5,6,13.3L6,13.3L6,13.3z"/></svg>