<svg xmlns="http://www.w3.org/2000/svg" xmlns:xlink="http://www.w3.org/1999/xlink" style="enable-background:new 0 0 16 16" id="home" x="0" y="0" version="1.1" viewBox="0 0 16 16" xml:space="preserve"><style type="text/css"/><path id="Combined_Shape_2_" d="M15.1,15.8l-4.3-4.3c-2.7,2.3-6.8,2-9.2-0.7s-2-6.8,0.7-9.2s6.8-2,9.2,0.7c2.1,2.4,2.1,6,0,8.5	l4.3,4.3c0.2,0.2,0.2,0.5,0,0.7C15.6,16,15.3,16,15.1,15.8z M1.1,6.6c0,3,2.5,5.5,5.5,5.5s5.5-2.5,5.5-5.5S9.6,1.1,6.6,1.1	C3.5,1.1,1.1,3.5,1.1,6.6z"/></svg>