<svg xmlns="http://www.w3.org/2000/svg" xmlns:xlink="http://www.w3.org/1999/xlink" style="enable-background:new 0 0 16 16" id="home" x="0" y="0" version="1.1" viewBox="0 0 16 16" xml:space="preserve"><style type="text/css"/><path id="Combined_Shape" d="M4,15.4c-0.7,0-1.2-0.5-1.2-1.2V5.8c0-0.2,0.2-0.4,0.4-0.4c0.2,0,0.4,0.2,0.4,0.4v8.4	c0,0.2,0.2,0.4,0.4,0.4h8c0.2,0,0.4-0.2,0.4-0.4v-8l0,0V5.8c0-0.2,0.2-0.4,0.4-0.4c0.2,0,0.4,0.2,0.4,0.4v0.8c0,0,0,0,0,0v7.6	c0,0.7-0.5,1.2-1.2,1.2H4z M9.2,12.2V5.8c0-0.2,0.2-0.4,0.4-0.4c0.2,0,0.4,0.2,0.4,0.4v6.4c0,0.2-0.2,0.4-0.4,0.4	C9.4,12.6,9.2,12.4,9.2,12.2z M6,12.2V5.8c0-0.2,0.2-0.4,0.4-0.4s0.4,0.2,0.4,0.4v6.4c0,0.2-0.2,0.4-0.4,0.4S6,12.4,6,12.2z M1.2,4.6C1,4.6,0.8,4.4,0.8,4.2C0.8,4,1,3.8,1.2,3.8h2.6v-2c0-0.7,0.5-1.2,1.2-1.2h6c0.7,0,1.2,0.5,1.2,1.2v2h-0.8v-2	c0-0.2-0.2-0.4-0.4-0.4H5c-0.2,0-0.4,0.2-0.4,0.4l0,0v2h10.2c0.2,0,0.4,0.2,0.4,0.4c0,0.2-0.2,0.4-0.4,0.4H1.2z"/></svg>