<svg xmlns="http://www.w3.org/2000/svg" xmlns:xlink="http://www.w3.org/1999/xlink" style="enable-background:new 0 0 24 24" id="home" x="0" y="0" version="1.1" viewBox="0 0 24 24" xml:space="preserve"><style type="text/css"/><g><path d="M12,0C5.4,0,0,5.4,0,12s5.4,12,12,12c6.6,0,12-5.4,12-12S18.6,0,12,0z M22.2,12c0,5.6-4.6,10.2-10.2,10.2S1.8,17.6,1.8,12 S6.4,1.8,12,1.8S22.2,6.4,22.2,12z"/><g><path d="M9.8,9.8c0,0,0.1-0.1,0.2-0.2l4.7-2.5c0.6-0.3,1.4-0.2,1.9,0.3c0.5,0.5,0.6,1.3,0.3,1.9l-2.5,4.6l0,0l-0.2,0.3 c0,0-0.1,0.1-0.2,0.2l-4.7,2.5C9,17,8.8,17.1,8.5,17.1c-0.4,0-0.9-0.2-1.2-0.5c-0.5-0.5-0.6-1.3-0.3-1.9l2.5-4.6 M11.1,11.1 l-2,3.8l3.8-2l2-3.8L11.1,11.1z"/></g></g></svg>