<svg xmlns="http://www.w3.org/2000/svg" xmlns:xlink="http://www.w3.org/1999/xlink" style="enable-background:new 0 0 82 144.3" id="home" x="0" y="0" version="1.1" viewBox="0 0 82 144.3" xml:space="preserve"><style type="text/css"/><g><path d="M73.3,0H8.7C3.9,0,0,3.9,0,8.7v127c0,4.8,3.9,8.7,8.7,8.7h64.6c4.8,0,8.7-3.9,8.7-8.7V8.7C82,3.9,78.1,0,73.3,0z M78,135.6 c0,2.6-2.1,4.7-4.7,4.7H8.7c-2.6,0-4.7-2.1-4.7-4.7V8.7C4,6.1,6.1,4,8.7,4h64.6C75.9,4,78,6.1,78,8.7V135.6z"/><path d="M41,122.7c-3.2,0-5.7,2.6-5.7,5.7s2.6,5.7,5.7,5.7s5.7-2.6,5.7-5.7S44.2,122.7,41,122.7z M41,132.9c-2.5,0-4.4-2-4.4-4.4 s2-4.4,4.4-4.4s4.4,2,4.4,4.4S43.4,132.9,41,132.9z"/><path d="M53,54.7c0-0.4-0.1-0.7-0.4-0.9L41.9,43c-0.4-0.4-0.9-0.5-1.4-0.3c-0.5,0.2-0.8,0.7-0.8,1.2v17.6l-8.6-7.8 c-0.5-0.5-1.3-0.4-1.8,0.1c-0.5,0.5-0.4,1.3,0.1,1.8l9.7,8.9l-9.7,8.9c-0.5,0.5-0.6,1.3-0.1,1.8c0.2,0.3,0.6,0.4,0.9,0.4 c0.4,0,0.7-0.1,0.9-0.3l8.6-7.8V85c0,0.5,0.3,1,0.8,1.2c0.2,0.1,0.3,0.1,0.5,0.1c0.3,0,0.7-0.1,0.9-0.4l10.7-10.7 c0.2-0.2,0.4-0.6,0.4-0.9c0-0.4-0.2-0.7-0.4-0.9l-9.7-8.9l9.7-8.9C52.8,55.3,53,55,53,54.7z M49.8,74.3l-7.6,7.6V67.4L49.8,74.3z M42.3,61.5V47l7.6,7.6L42.3,61.5z"/></g></svg>