<svg xmlns="http://www.w3.org/2000/svg" xmlns:xlink="http://www.w3.org/1999/xlink" id="home" x="0" y="0" version="1.1" viewBox="0 0 34 34" xml:space="preserve" style="enable-background:new 0 0 34 34"><style type="text/css">.st3{fill:#fff}.st7{fill:#8f4ddb}</style><circle cx="17" cy="17" r="17" class="st7"/><g id="icon_proposal_2_" transform="translate(72)"><path id="Shape_2_" d="M-59.2,24c-1,0-1.9-0.8-2-1.9V22V12c0-1,0.8-1.9,1.9-2l0.1,0h9.7c0.3,0,0.6,0.3,0.6,0.6 c0,0.3-0.2,0.5-0.5,0.6l-0.1,0h-9.7c-0.4,0-0.8,0.3-0.8,0.7l0,0.1V22c0,0.4,0.3,0.8,0.7,0.8l0.1,0h8.3c0.4,0,0.8-0.3,0.8-0.7l0-0.1 v-9.2c0-0.3,0.3-0.6,0.6-0.6c0.3,0,0.5,0.2,0.6,0.5l0,0.1V22c0,1-0.8,1.9-1.9,2l-0.1,0L-59.2,24z M-57.8,18.6 c-0.3,0-0.6-0.3-0.6-0.6c0-0.3,0.2-0.5,0.5-0.6l0.1,0h3.5c0.3,0,0.6,0.3,0.6,0.6c0,0.3-0.2,0.5-0.5,0.6l-0.1,0L-57.8,18.6z M-57.8,15.8c-0.3,0-0.6-0.3-0.6-0.6c0-0.3,0.2-0.5,0.5-0.6l0.1,0h5.6c0.3,0,0.6,0.3,0.6,0.6c0,0.3-0.2,0.5-0.5,0.6l-0.1,0 L-57.8,15.8z" class="st3"/></g></svg>