<svg xmlns="http://www.w3.org/2000/svg" xmlns:xlink="http://www.w3.org/1999/xlink" style="enable-background:new 0 0 26 26" id="home" x="0" y="0" version="1.1" viewBox="0 0 26 26" xml:space="preserve"><style type="text/css"/><path d="M19,21H7c-0.3,0-0.6-0.2-0.7-0.6v-9.4c0.1-0.3,0.4-0.6,0.7-0.6h2.5c0.3,0,0.5,0.3,0.5,0.6c0,0.3-0.2,0.5-0.5,0.5	c0,0,0,0,0,0H7.4v8.4h11.3v-8.4h-2.5c-0.3,0-0.5-0.2-0.5-0.5c0,0,0,0,0,0c0-0.3,0.2-0.6,0.5-0.6H19c0.4,0,0.6,0.3,0.7,0.6v9.4	C19.6,20.8,19.3,21,19,21z M13,15.4c-0.3,0-0.5-0.2-0.5-0.5V7l-1.4,1.7c-0.2,0.2-0.5,0.3-0.8,0.1C10.1,8.6,10,8.3,10.2,8	c0,0,0,0,0,0c0,0,1.6-2,2.4-2.9c0.1,0,0.6-0.2,0.8,0.1L15.8,8c0.1,0.1,0.1,0.2,0.1,0.3c0,0.2-0.1,0.3-0.2,0.4	c-0.2,0.2-0.6,0.1-0.8-0.1L13.5,7v7.8C13.5,15.1,13.3,15.4,13,15.4z"/></svg>