<svg xmlns="http://www.w3.org/2000/svg" xmlns:xlink="http://www.w3.org/1999/xlink" style="enable-background:new 0 0 20 20" id="home" x="0" y="0" version="1.1" viewBox="0 0 20 20" xml:space="preserve"><style type="text/css"/><path id="Combined-Shape_1_" d="M18,0c1.1,0,2,0.9,2,2v16c0,1.1-0.9,2-2,2H2c-1.1,0-2-0.9-2-2V2c0-1.1,0.9-2,2-2H18z M16.4,1.9	l-2.1,2.1C11,1.5,6.3,2.3,3.9,5.6C2,8.2,2,11.8,3.9,14.4L2.3,16l1.8,1.8l1.6-1.6c3.4,2.4,8.1,1.6,10.5-1.8c1.8-2.6,1.8-6,0-8.6	l2.1-2.1L16.4,1.9z M15.1,10c0,2.8-2.3,5.1-5.1,5.1c-0.9,0-1.8-0.2-2.6-0.7l7-7C14.9,8.2,15.1,9.1,15.1,10z M10,4.9	c0.9,0,1.9,0.3,2.7,0.8l-7.1,7.1c-1.5-2.4-0.7-5.6,1.7-7.1C8.1,5.1,9.1,4.9,10,4.9z"/></svg>