<svg xmlns="http://www.w3.org/2000/svg" xmlns:xlink="http://www.w3.org/1999/xlink" style="enable-background:new 0 0 16 16" id="home" x="0" y="0" version="1.1" viewBox="0 0 16 16" xml:space="preserve"><style type="text/css"/><path id="Symbol" d="M2.5,4.9c0,0.1,0.1,0.2,0.1,0.3l5.2,5.5c0.2,0.2,0.5,0.2,0.7,0.1c0,0,0,0,0,0l5.2-5.5c0.1-0.1,0.1-0.2,0.1-0.3	c0-0.3-0.2-0.5-0.5-0.5c0,0,0,0,0,0c-0.1,0-0.2,0-0.3,0.1L8.2,9.7L3.3,4.6C3.2,4.5,3.1,4.4,3,4.4C2.7,4.4,2.5,4.6,2.5,4.9	C2.5,4.9,2.5,4.9,2.5,4.9L2.5,4.9z"/></svg>