<svg xmlns="http://www.w3.org/2000/svg" xmlns:xlink="http://www.w3.org/1999/xlink" id="home" x="0" y="0" version="1.1" viewBox="0 0 16 16" xml:space="preserve" style="enable-background:new 0 0 16 16"><style type="text/css">.st3{fill:#fff}.st15{fill:#3eaf66}</style><g><path d="M8,0c4.4,0,8,3.6,8,8s-3.6,8-8,8s-8-3.6-8-8S3.6,0,8,0z" class="st15"/><path d="M12.1,4.5l-6,6L3.9,8.2C3.8,8.1,3.6,8,3.5,8C3.3,8,3.1,8.1,3,8.3C3,8.5,3,8.7,3.2,8.9l2.7,2.7 c0.2,0.2,0.5,0.2,0.7,0l6.3-6.3C13,5,13,4.7,12.8,4.5C12.7,4.3,12.3,4.3,12.1,4.5z" class="st3"/></g></svg>