<svg xmlns="http://www.w3.org/2000/svg" xmlns:xlink="http://www.w3.org/1999/xlink" id="home" x="0" y="0" version="1.1" viewBox="0 0 16 16" xml:space="preserve" style="enable-background:new 0 0 16 16"><style type="text/css">.st12,.st13{fill-rule:evenodd;clip-rule:evenodd;fill:#fd3b4c}.st13{fill:#fff}</style><g><circle cx="8" cy="8" r="8" class="st12"/><path d="M11,4.3l-3,3l-3-3c-0.2-0.2-0.5-0.2-0.7,0l0,0C4.2,4.5,4.2,4.8,4.3,5c0,0,0,0,0,0l3,3l-3,3 c-0.2,0.2-0.2,0.5,0,0.7l0,0c0.2,0.2,0.5,0.2,0.7,0l0,0l3-3l3,3c0.1,0.1,0.2,0.1,0.3,0.1c0.2,0,0.4-0.1,0.4-0.3 c0.1-0.2,0-0.4-0.1-0.5l-3-3l3-3c0.2-0.2,0.2-0.5,0-0.7l0,0C11.5,4.1,11.2,4.1,11,4.3z" class="st13"/></g></svg>