<svg xmlns="http://www.w3.org/2000/svg" xmlns:xlink="http://www.w3.org/1999/xlink" style="enable-background:new 0 0 24 24" id="home" x="0" y="0" version="1.1" viewBox="0 0 24 24" xml:space="preserve"><style type="text/css"/><g><path d="M11.5,1.9H11c-6.1,0-11.1,5-11.1,11.1c0,5.6,4.3,10.4,9.8,11v0.1H11c6.1,0,11.1-5,11.1-11.1v-0.5H11.5V1.9z M1.7,13.1 c0-4.7,3.4-8.6,8-9.2v18.5C5.1,21.6,1.7,17.7,1.7,13.1z M19.2,17.5l-5.4-3.1h6.5C20.1,15.5,19.7,16.6,19.2,17.5z M11.5,22.4v-7.3 l6.7,3.9C16.5,21,14.1,22.2,11.5,22.4z"/><path d="M12.8,0.2h-0.5v11.6h11.6v-0.5C23.9,5.1,18.9,0.2,12.8,0.2z M14.1,9.9V2.1c4.1,0.6,7.3,3.8,7.9,7.9H14.1z"/></g></svg>