<svg xmlns="http://www.w3.org/2000/svg" xmlns:xlink="http://www.w3.org/1999/xlink" style="enable-background:new 0 0 24 24" id="home" x="0" y="0" version="1.1" viewBox="0 0 24 24" xml:space="preserve"><style type="text/css"/><path d="M21.8,16.8L20.9,16v-4.9c0-3.8-2.3-7.1-5.9-8.4c-0.2-1.4-1.3-2.5-2.7-2.7c-0.8-0.1-1.6,0.1-2.3,0.6C9.5,1.1,9,1.8,8.9,2.7	c0,0,0,0,0,0C5.4,4,3.1,7.3,3.1,11.1l0,5l-0.8,0.7c-0.4,0.3-0.6,0.8-0.6,1.3v1.4c0,0.6,0.4,1.2,0.9,1.5L7.5,21c0.8,1.8,2.6,3,4.5,3	c1.9,0,3.7-1.2,4.5-2.9l4.7,0l0.3-0.1c0.6-0.3,0.9-0.8,0.9-1.5V18C22.4,17.6,22.2,17.1,21.8,16.8z M14.4,21	c-0.6,0.7-1.5,1.1-2.4,1.1c-0.9,0-1.8-0.4-2.4-1.1L14.4,21z M10.7,3.2c0-0.1,0-0.2,0-0.3c0-0.3,0.2-0.6,0.5-0.8	c0.3-0.2,0.6-0.3,0.9-0.3c0.7,0.1,1.2,0.7,1.1,1.4L13.2,4l0.8,0.2c3.1,0.9,5.2,3.7,5.2,6.8V16c0,0.6,0.2,1.1,0.7,1.5l0.8,0.7v1.1	H3.4v-1.1l0.8-0.6c0.4-0.4,0.7-0.9,0.7-1.5v-4.9c0-3.2,2.1-6,5.2-6.8L10.8,4L10.7,3.2z"/></svg>