<svg xmlns="http://www.w3.org/2000/svg" xmlns:xlink="http://www.w3.org/1999/xlink" style="enable-background:new 0 0 16 16" id="home" x="0" y="0" version="1.1" viewBox="0 0 16 16" xml:space="preserve"><style type="text/css"/><g id="share_1_" transform="translate(-64 -63.977)"><path id="Path_45043" d="M77.7,67.8c-4.4,0.6-7.9,3.9-8.9,8.2c0,0.4-0.4,0.7-0.8,0.6c-0.4,0-0.7-0.4-0.6-0.8c0,0,0-0.1,0-0.1 c1-4.7,4.8-8.4,9.6-9.3l-2.1-1.3c-0.3-0.2-0.4-0.7-0.1-1c0.2-0.3,0.6-0.4,0.9-0.2l4,2.4c0.3,0.2,0.4,0.6,0.2,1c0,0,0,0.1-0.1,0.1 l-3.1,3.7c-0.2,0.3-0.6,0.4-1,0.2c-0.3-0.2-0.4-0.6-0.2-1c0,0,0.1-0.1,0.1-0.1L77.7,67.8z"/><path id="Path_45044" d="M77.9,74c0-0.4,0.2-0.7,0.6-0.8c0.4,0,0.7,0.2,0.8,0.6c0,0,0,0.1,0,0.1v2.9c0.1,1.5-1.1,2.8-2.6,2.9H66.6 c-1.5-0.1-2.6-1.4-2.6-2.9v-8.7c-0.1-1.5,1.1-2.8,2.6-2.9h4c0.4,0,0.7,0.2,0.8,0.6s-0.2,0.7-0.6,0.8c0,0-0.1,0-0.1,0h-4 c-0.7,0.1-1.2,0.7-1.2,1.5v8.7c-0.1,0.7,0.4,1.4,1.2,1.5h10.2c0.7-0.1,1.2-0.7,1.2-1.5L77.9,74z"/></g></svg>