<svg xmlns="http://www.w3.org/2000/svg" xmlns:xlink="http://www.w3.org/1999/xlink" id="home" x="0" y="0" version="1.1" viewBox="0 0 34 34" xml:space="preserve" style="enable-background:new 0 0 34 34"><style type="text/css">.st2{fill-rule:evenodd;clip-rule:evenodd;fill:#f4863b}.st3{fill:#fff}</style><circle cx="17" cy="17" r="17" class="st2"/><g><path d="M23.9,17.7h-3.5l2.8-2.8c0.2-0.3,0.2-0.7,0-0.9l-4.9-4.9c-0.2-0.2-0.6-0.3-0.9,0l-6.3,6.3 c-0.2,0.3-0.2,0.7,0,0.9l1.4,1.4h-2.4c-0.7,0-1.2,0.6-1.2,1.2v4.8c0,0.7,0.6,1.2,1.2,1.2h13.8c0.7,0,1.2-0.6,1.2-1.2V19 C25.1,18.3,24.6,17.7,23.9,17.7z M12.9,20.5c-0.3,0-0.6,0.2-0.6,0.6c0,0.3,0.2,0.6,0.6,0.6h8.2c0.3,0,0.6-0.2,0.6-0.6 c0-0.3-0.2-0.6-0.6-0.6h-3.5l1.7-1.7h4.6c0.1,0,0.1,0.1,0.1,0.1v4.8c0,0.1-0.1,0.1-0.1,0.1H10.1c-0.1,0-0.1-0.1-0.1-0.1V19 c0-0.1,0.1-0.1,0.1-0.1h3.5l1.7,1.7H12.9z M16.4,20.1l-4.2-4.2l5.6-5.6l4.2,4.2L16.4,20.1z" class="st3"/><path d="M15.4,15c-0.2-0.2-0.6-0.2-0.8,0c-0.2,0.2-0.2,0.6,0,0.8l1.3,1.4c0.2,0.2,0.4,0.3,0.7,0.3 c0.3,0,0.5-0.1,0.7-0.3l2-2c0.1-0.1,0.2-0.2,0.2-0.4c0-0.1-0.1-0.3-0.2-0.4c-0.1-0.1-0.2-0.2-0.4-0.2c0,0,0,0,0,0 c-0.1,0-0.3,0.1-0.4,0.2l-1.9,1.9L15.4,15z" class="st3"/></g></svg>